<?xml version="1.0" encoding="UTF-8" standalone="no"?>
<!DOCTYPE svg PUBLIC "-//W3C//DTD SVG 1.1//EN"
 "http://www.w3.org/Graphics/SVG/1.1/DTD/svg11.dtd">
<!-- Generated by graphviz version 2.38.0 (20140413.2041)
 -->
<!-- Title: shark Pages: 1 -->
<svg width="540pt" height="405pt"
 viewBox="0.00 0.00 540.04 404.60" xmlns="http://www.w3.org/2000/svg" xmlns:xlink="http://www.w3.org/1999/xlink">
<g id="graph0" class="graph" transform="scale(1 1) rotate(0) translate(4 400.6)">
<title>shark</title>
<polygon fill="white" stroke="none" points="-4,4 -4,-400.6 536.044,-400.6 536.044,4 -4,4"/>
<!-- ENTRY -->
<g id="node1" class="node"><title>ENTRY</title>
<ellipse fill="black" stroke="black" cx="170.044" cy="-394.8" rx="1.8" ry="1.8"/>
</g>
<!-- wander -->
<g id="node2" class="node"><title>wander</title>
<ellipse fill="none" stroke="black" cx="170.044" cy="-324" rx="37.0935" ry="18"/>
<text text-anchor="middle" x="170.044" y="-320.3" font-family="Times New Roman,serif" font-size="14.00">wander</text>
</g>
<!-- ENTRY&#45;&gt;wander -->
<g id="edge1" class="edge"><title>ENTRY&#45;&gt;wander</title>
<path fill="none" stroke="black" d="M170.044,-392.827C170.044,-388.337 170.044,-369.111 170.044,-352.269"/>
<polygon fill="black" stroke="black" points="173.545,-352.245 170.044,-342.245 166.545,-352.245 173.545,-352.245"/>
<text text-anchor="middle" x="179.544" y="-363.8" font-family="Times New Roman,serif" font-size="14.00">Init</text>
</g>
<!-- surface -->
<g id="node4" class="node"><title>surface</title>
<ellipse fill="none" stroke="black" cx="84.0444" cy="-251" rx="37.0935" ry="18"/>
<text text-anchor="middle" x="84.0444" y="-247.3" font-family="Times New Roman,serif" font-size="14.00">surface</text>
</g>
<!-- wander&#45;&gt;surface -->
<g id="edge7" class="edge"><title>wander&#45;&gt;surface</title>
<path fill="none" stroke="black" d="M151.806,-307.943C139.638,-297.897 123.458,-284.539 109.96,-273.395"/>
<polygon fill="black" stroke="black" points="111.901,-270.46 101.962,-266.792 107.445,-275.858 111.901,-270.46"/>
</g>
<!-- im_hit -->
<g id="node3" class="node"><title>im_hit</title>
<ellipse fill="none" stroke="black" cx="350.044" cy="-91" rx="33.5952" ry="18"/>
<text text-anchor="middle" x="350.044" y="-87.3" font-family="Times New Roman,serif" font-size="14.00">I&#39;m hit</text>
</g>
<!-- submerge -->
<g id="node5" class="node"><title>submerge</title>
<ellipse fill="none" stroke="black" cx="174.044" cy="-18" rx="46.2923" ry="18"/>
<text text-anchor="middle" x="174.044" y="-14.3" font-family="Times New Roman,serif" font-size="14.00">submerge</text>
</g>
<!-- im_hit&#45;&gt;submerge -->
<g id="edge5" class="edge"><title>im_hit&#45;&gt;submerge</title>
<path fill="none" stroke="black" d="M323.695,-79.3706C294.806,-67.7163 248.102,-48.8755 214.55,-35.3403"/>
<polygon fill="black" stroke="black" points="215.611,-31.9944 205.028,-31.4991 212.992,-38.4861 215.611,-31.9944"/>
</g>
<!-- move_to_target -->
<g id="node6" class="node"><title>move_to_target</title>
<ellipse fill="none" stroke="black" cx="63.0444" cy="-178" rx="63.0888" ry="18"/>
<text text-anchor="middle" x="63.0444" y="-174.3" font-family="Times New Roman,serif" font-size="14.00">move to target</text>
</g>
<!-- surface&#45;&gt;move_to_target -->
<g id="edge2" class="edge"><title>surface&#45;&gt;move_to_target</title>
<path fill="none" stroke="black" d="M78.9609,-232.813C76.562,-224.702 73.6436,-214.836 70.9643,-205.777"/>
<polygon fill="black" stroke="black" points="74.2737,-204.625 68.0811,-196.029 67.5612,-206.611 74.2737,-204.625"/>
</g>
<!-- submerge&#45;&gt;wander -->
<g id="edge4" class="edge"><title>submerge&#45;&gt;wander</title>
<path fill="none" stroke="black" d="M174.044,-36.2164C174.044,-50.5949 174.044,-71.6337 174.044,-90 174.044,-252 174.044,-252 174.044,-252 174.044,-266.371 173.217,-282.353 172.315,-295.51"/>
<polygon fill="black" stroke="black" points="168.802,-295.569 171.557,-305.799 175.783,-296.083 168.802,-295.569"/>
<text text-anchor="middle" x="277.044" y="-174.3" font-family="Times New Roman,serif" font-size="14.00">_timeToWander &lt; 0 &amp;&amp; haveTarget</text>
</g>
<!-- attack -->
<g id="node7" class="node"><title>attack</title>
<ellipse fill="none" stroke="black" cx="87.0444" cy="-91" rx="32.4942" ry="18"/>
<text text-anchor="middle" x="87.0444" y="-87.3" font-family="Times New Roman,serif" font-size="14.00">attack</text>
</g>
<!-- move_to_target&#45;&gt;attack -->
<g id="edge6" class="edge"><title>move_to_target&#45;&gt;attack</title>
<path fill="none" stroke="black" d="M58.8507,-159.902C57.2029,-150.036 56.4529,-137.536 60.0444,-127 61.4373,-122.914 63.5216,-118.934 65.9262,-115.21"/>
<polygon fill="black" stroke="black" points="68.8207,-117.183 71.9439,-107.059 63.1889,-113.025 68.8207,-117.183"/>
<text text-anchor="middle" x="110.044" y="-130.8" font-family="Times New Roman,serif" font-size="14.00">IsCloseTo Target</text>
</g>
<!-- attack&#45;&gt;submerge -->
<g id="edge3" class="edge"><title>attack&#45;&gt;submerge</title>
<path fill="none" stroke="black" d="M104.65,-75.6321C116.853,-65.6736 133.33,-52.2268 147.166,-40.9352"/>
<polygon fill="black" stroke="black" points="149.421,-43.6129 154.955,-34.5785 144.995,-38.1896 149.421,-43.6129"/>
</g>
<!-- snowballed -->
<g id="node8" class="node"><title>snowballed</title>
<polygon fill="none" stroke="black" points="532.044,-196 398.044,-196 398.044,-160 532.044,-160 532.044,-196"/>
<text text-anchor="middle" x="465.044" y="-174.3" font-family="Times New Roman,serif" font-size="14.00">collide with snowball</text>
</g>
<!-- snowballed&#45;&gt;im_hit -->
<g id="edge8" class="edge"><title>snowballed&#45;&gt;im_hit</title>
<path fill="none" stroke="black" d="M441.772,-159.799C423.135,-146.023 396.953,-126.672 377.33,-112.168"/>
<polygon fill="black" stroke="black" points="379.217,-109.21 369.095,-106.081 375.056,-114.839 379.217,-109.21"/>
</g>
</g>
</svg>
